PathFileType	4	(X/Y/Z)	/Users/itak/Documents/Research/Walk-IL/dataset/trc/00028_00004.trc
DataRate	CameraRate	NumFrames	NumMarkers	Units	OrigDataRate	OrigDataStartFrame	OrigNumFrames
100.000000	100.000000	4	53	mm	100.000000	79	633
Frame#	Time	RPSI			LPSI			L3			STRN			T10			C7			CLAV			RBAK			LBAK			LSHO			LUPA			LAEL			LAOL			LWTS			LWPS			LFRA			LIFD			LHPS			LHTS			RSHO			RUPA			RAEL			RAOL			RWTS			RWPS			RFRA			RIFD			RHTS			RHPS			RBHD			LFHD			RFHD			LBHD			LHIP			RHIP			RASI			LASI			LKNE			LTHI			LANK			LTIP			LTOE			LMT1			LMT5			LHEE			RKNE			RTHI			RANK			RTIP			RTOE			RMT1			RMT5			RHEE			
		X1	Y1	Z1	X2	Y2	Z2	X3	Y3	Z3	X4	Y4	Z4	X5	Y5	Z5	X6	Y6	Z6	X7	Y7	Z7	X8	Y8	Z8	X9	Y9	Z9	X10	Y10	Z10	X11	Y11	Z11	X12	Y12	Z12	X13	Y13	Z13	X14	Y14	Z14	X15	Y15	Z15	X16	Y16	Z16	X17	Y17	Z17	X18	Y18	Z18	X19	Y19	Z19	X20	Y20	Z20	X21	Y21	Z21	X22	Y22	Z22	X23	Y23	Z23	X24	Y24	Z24	X25	Y25	Z25	X26	Y26	Z26	X27	Y27	Z27	X28	Y28	Z28	X29	Y29	Z29	X30	Y30	Z30	X31	Y31	Z31	X32	Y32	Z32	X33	Y33	Z33	X34	Y34	Z34	X35	Y35	Z35	X36	Y36	Z36	X37	Y37	Z37	X38	Y38	Z38	X39	Y39	Z39	X40	Y40	Z40	X41	Y41	Z41	X42	Y42	Z42	X43	Y43	Z43	X44	Y44	Z44	X45	Y45	Z45	X46	Y46	Z46	X47	Y47	Z47	X48	Y48	Z48	X49	Y49	Z49	X50	Y50	Z50	X51	Y51	Z51	X52	Y52	Z52	X53	Y53	Z53	

80	0.79	-209.1637115478516	1056.031005859375	784.3109130859375	-317.0125427246094	1058.494995117188	907.8222045898438	-263.3649597167969	1119.297729492188	851.9496459960938	-429.0281066894531	1297.941162109375	685.3409423828125	-247.7784423828125	1265.714599609375	860.4685668945312	-297.3115234375	1529.72021484375	815.0617065429688	-404.4232788085938	1426.084106445312	708.9627075195312	-199.7474517822266	1394.075073242188	804.6439819335938	-350.4363098144531	1494.86474609375	900.0213012695312	-472.8218078613281	1495.536865234375	884.1567993164062	-493.8084106445312	1381.577758789062	978.4046630859375	-495.3232116699219	1171.919189453125	1034.055541992188	-395.1915893554688	1161.657470703125	1003.021728515625	-520.3846435546875	910.521728515625	960.3544921875	-491.4574890136719	904.3786010742188	1043.710083007812	-505.8087768554688	1056.005615234375	1044.021240234375	-522.47705078125	723.2593994140625	945.28662109375	-513.014892578125	811.7466430664062	1028.31982421875	-542.3929443359375	816.002197265625	964.09716796875	-229.6279602050781	1503.420166015625	639.94775390625	-166.6837158203125	1433.997192382812	604.265869140625	-110.3265228271484	1167.779541015625	627.1441040039062	-175.7049255371094	1142.546630859375	697.8204956054688	-273.2291564941406	938.6744995117188	546.00048828125	-187.4422607421875	904.3099975585938	538.9996337890625	-118.0720672607422	1088.730346679688	603.7564697265625	-338.4056396484375	765.4649047851562	533.3629150390625	-313.5125122070312	839.8859252929688	505.2174987792969	-242.1607208251953	815.8153076171875	505.7671203613281	-427.5912475585938	1707.691772460938	779.134765625	-343.5922241210938	1693.549682617188	577.5574340820312	-439.4441833496094	1700.289306640625	597.5404052734375	-288.6317138671875	1695.143188476562	743.4402465820312	-469.7539978027344	959.2435913085938	925.7872314453125	-228.4635314941406	924.7468872070312	646.1205444335938	-350.8281555175781	965.8560791015625	624.342529296875	-503.2038269042969	1001.622863769531	798.8867797851562	-589.6090698242188	537.6810913085938	767.3168334960938	-566.2667236328125	666.9161376953125	844.1329345703125	-508.9544982910156	94.63069152832031	1004.424987792969	-549.2393798828125	327.3861694335938	911.862548828125	-615.5577392578125	53.96329116821289	812.75390625	-562.3709716796875	63.87297058105469	840.1678466796875	-608.9086303710938	75.34723663330078	934.840087890625	-424.0938415527344	105.5447387695312	1016.09765625	-323.32421875	498.068603515625	735.9251098632812	-268.0555419921875	755.8287963867188	654.2130737304688	-282.968505859375	45.4296760559082	928.7506103515625	-319.40576171875	376.8329162597656	778.927734375	-489.0437927246094	43.48537445068359	813.8558349609375	-459.0582885742188	49.28337478637695	875.6282958984375	-383.0149230957031	44.02301788330078	816.4190673828125	-269.3615417480469	51.12228012084961	998.1201171875	
81	0.8	-214.9678039550781	1055.465698242188	780.5526733398438	-325.2468566894531	1057.886474609375	901.9075317382812	-270.4895324707031	1118.500366210938	847.0214233398438	-432.9066772460938	1297.212036132812	677.4541015625	-254.7242431640625	1265.0361328125	855.600341796875	-303.5394897460938	1529.05126953125	809.2584228515625	-408.7766418457031	1425.365844726562	701.4834594726562	-205.6695709228516	1393.444458007812	800.55029296875	-357.8768615722656	1494.12255859375	893.4261474609375	-480.0308837890625	1494.745361328125	875.5663452148438	-502.5135192871094	1380.793334960938	969.3870849609375	-504.9047241210938	1171.169555664062	1025.05029296875	-404.3586730957031	1160.98974609375	995.5978393554688	-528.4545288085938	909.52490234375	951.5701293945312	-500.7830810546875	903.6311645507812	1035.494873046875	-515.4149780273438	1055.252197265625	1035.067504882812	-529.7872314453125	722.188232421875	937.0387573242188	-521.8128662109375	810.9283447265625	1019.980041503906	-550.222900390625	814.8694458007812	955.3019409179688	-232.9124755859375	1502.707397460938	635.30224609375	-169.3513793945312	1433.280517578125	600.6600341796875	-113.3210678100586	1167.053955078125	624.365478515625	-179.5365295410156	1141.912475585938	694.1244506835938	-276.3296508789062	938.7786865234375	540.8983764648438	-190.6654052734375	904.0938110351562	534.7135620117188	-121.0478591918945	1087.995239257812	600.7233276367188	-342.1073303222656	765.9351806640625	527.2291870117188	-316.6438903808594	840.2843627929688	499.5047607421875	-245.3872375488281	815.887451171875	500.7073669433594	-432.8533630371094	1707.053100585938	771.600341796875	-346.0011291503906	1692.985717773438	571.22607421875	-442.0908813476562	1699.795776367188	589.807861328125	-293.4757385253906	1694.407348632812	737.9168701171875	-478.5570983886719	958.733642578125	916.4552612304688	-230.9705505371094	924.072265625	642.026611328125	-353.0746765136719	964.9691772460938	617.61962890625	-509.0354614257812	1001.142761230469	788.9906616210938	-597.2095947265625	539.9392700195312	750.6643676757812	-575.0862426757812	667.8201293945312	829.9259643554688	-535.3971557617188	89.26142120361328	978.48291015625	-566.9187622070312	325.44140625	890.970947265625	-633.3763427734375	55.18970489501953	780.7099609375	-581.4136352539062	63.65787124633789	810.9232177734375	-632.2921142578125	73.37684631347656	903.6195678710938	-451.0960693359375	98.60689544677734	994.32421875	-323.58349609375	497.2676696777344	733.7925415039062	-269.8082885742188	754.9830322265625	650.9124755859375	-283.1262512207031	45.74099349975586	928.9442138671875	-319.7222900390625	376.4840698242188	777.735107421875	-489.0798034667969	43.47589111328125	813.7861328125	-459.0307312011719	49.38946533203125	875.5547485351562	-383.0214233398438	44.01910018920898	816.4015502929688	-269.6481018066406	51.67662811279297	998.324462890625	
82	0.8100000000000001	-220.7914581298828	1054.766845703125	776.7135009765625	-333.3753356933594	1057.136474609375	895.8941040039062	-277.5784912109375	1117.620971679688	842.0043334960938	-436.7548522949219	1296.34716796875	669.5272216796875	-261.6453552246094	1264.277709960938	850.6410522460938	-309.8370056152344	1528.276611328125	803.3328857421875	-413.1246948242188	1424.526123046875	693.9331665039062	-211.6231231689453	1392.728759765625	796.3502197265625	-365.2485656738281	1493.278930664062	886.724853515625	-487.1984252929688	1493.837524414062	866.8613891601562	-511.1581420898438	1379.890869140625	960.256591796875	-514.426513671875	1170.318725585938	1015.939453125	-413.4599914550781	1160.228393554688	988.0951538085938	-536.4700317382812	908.4100952148438	942.74267578125	-510.03759765625	902.785888671875	1027.204223632812	-524.966552734375	1054.40380859375	1026.021362304688	-537.2166748046875	721.0357666015625	928.6788940429688	-530.58642578125	810.012451171875	1011.604248046875	-557.981689453125	813.63916015625	946.5098266601562	-236.2383575439453	1501.881225585938	630.5939331054688	-172.0678100585938	1432.464599609375	596.995849609375	-116.3236618041992	1166.255249023438	621.57666015625	-183.3983612060547	1141.203247070312	690.4280395507812	-279.26171875	938.712646484375	535.8318481445312	-193.7097778320312	903.7529296875	530.437255859375	-123.9728393554688	1087.186157226562	597.6913452148438	-345.533447265625	766.196044921875	521.152099609375	-319.5449829101562	840.483642578125	493.8484497070312	-248.3821716308594	815.8043212890625	495.69091796875	-438.1305541992188	1706.269409179688	763.95849609375	-348.4546813964844	1692.281860351562	564.82568359375	-444.7675170898438	1699.155639648438	582.0050659179688	-298.3566589355469	1693.550170898438	732.2903442382812	-487.1836547851562	958.11279296875	907.1017456054688	-233.5575866699219	923.3261108398438	637.8956298828125	-355.37109375	964.0006713867188	610.9743041992188	-514.783447265625	1000.546936035156	779.1520385742188	-604.542724609375	542.1549682617188	734.345947265625	-583.6104736328125	668.6595458984375	815.824462890625	-560.6557006835938	84.42201232910156	951.5308837890625	-583.918701171875	323.7130432128906	869.666015625	-649.9694213867188	56.42523956298828	748.4290771484375	-599.321044921875	63.56147384643555	781.2317504882812	-654.3375244140625	71.70146942138672	871.8016357421875	-477.1182556152344	92.27014923095703	971.2966918945312	-324.1056823730469	496.470703125	731.5308837890625	-271.6649475097656	754.0997924804688	647.5341796875	-283.3598937988281	46.10102844238281	929.2123413085938	-320.2257690429688	376.0862426757812	776.4021606445312	-489.11083984375	43.48299407958984	813.6994018554688	-458.9953308105469	49.53038787841797	875.4768676757812	-383.0282287597656	44.02424621582031	816.3992919921875	-270.049072265625	52.28707885742188	998.605712890625	
83	0.8200000000000001	-226.6273345947266	1053.92431640625	772.7792358398438	-341.4071655273438	1056.236450195312	889.7678833007812	-284.6224365234375	1116.662963867188	836.89208984375	-440.5848693847656	1295.34814453125	661.5595703125	-268.5619201660156	1263.432495117188	845.5745239257812	-316.1815795898438	1527.39599609375	797.282470703125	-417.4696044921875	1423.56494140625	686.3150634765625	-217.6064605712891	1391.922485351562	792.0301513671875	-372.5557250976562	1492.337890625	879.91162109375	-494.3165283203125	1492.818969726562	858.0457153320312	-519.7274780273438	1378.875244140625	951.0192260742188	-523.8749389648438	1169.370361328125	1006.734191894531	-422.4672546386719	1159.369262695312	980.52197265625	-544.4287109375	907.1884765625	933.8811645507812	-519.2310791015625	901.8455200195312	1018.841003417969	-534.4526977539062	1053.46533203125	1016.892883300781	-544.7289428710938	719.8045043945312	920.2310180664062	-539.3360595703125	809.0055541992188	1003.188354492188	-565.684326171875	812.3284301757812	937.710205078125	-239.6130065917969	1500.945922851562	625.8108520507812	-174.8472442626953	1431.557006835938	593.2542724609375	-119.3373565673828	1165.388671875	618.7669067382812	-187.3034973144531	1140.41796875	686.720947265625	-282.0319519042969	938.4795532226562	530.7921142578125	-196.5841369628906	903.2857055664062	526.1670532226562	-126.8557739257812	1086.30517578125	594.6522216796875	-348.7037048339844	766.2460327148438	515.1248168945312	-322.2198181152344	840.4854125976562	488.2434997558594	-251.1494903564453	815.5667114257812	490.7137451171875	-443.4262084960938	1705.340454101562	756.1975708007812	-350.9552612304688	1691.438232421875	558.3497924804688	-447.4781799316406	1698.365356445312	574.1273803710938	-303.2714233398438	1692.570556640625	726.5532836914062	-495.6473083496094	957.3770141601562	897.7239379882812	-236.2295379638672	922.5042114257812	633.7083129882812	-357.727783203125	962.948486328125	604.39697265625	-520.4722290039062	999.8272705078125	769.3576049804688	-611.6422729492188	544.2992553710938	718.4125366210938	-591.8372192382812	669.4086303710938	801.8787231445312	-584.6632080078125	80.08972930908203	923.6823120117188	-600.1812133789062	322.1728210449219	848.0531616210938	-665.5072021484375	57.67202758789062	716.060302734375	-616.20703125	63.56964111328125	751.209716796875	-675.077392578125	70.31885528564453	839.5686645507812	-502.0269165039062	86.47811889648438	947.0846557617188	-324.9252319335938	495.6803588867188	729.1377563476562	-273.6465759277344	753.17724609375	644.0575561523438	-283.6690368652344	46.51229095458984	929.5560913085938	-320.9291076660156	375.6357116699219	774.9166259765625	-489.1316528320312	43.51023864746094	813.5985107421875	-458.9651794433594	49.69796371459961	875.39453125	-383.0390930175781	44.04024887084961	816.4114990234375	-270.5539245605469	52.97280883789062	998.9603881835938	
